<!DOCTYPE svg PUBLIC "-//W3C//DTD SVG 1.1//EN" "http://www.w3.org/Graphics/SVG/1.1/DTD/svg11.dtd">
<!-- Uploaded to: SVG Repo, www.svgrepo.com, Transformed by: SVG Repo Mixer Tools -->
<svg fill="#FFFFFF" width="800px" height="800px" viewBox="0 0 24 24" id="loading" data-name="Flat Color" xmlns="http://www.w3.org/2000/svg" class="icon flat-color" stroke="#FFFFFF">
<g id="SVGRepo_bgCarrier" stroke-width="0"/>
<g id="SVGRepo_tracerCarrier" stroke-linecap="round" stroke-linejoin="round"/>
<g id="SVGRepo_iconCarrier">
<path id="primary" d="M17,6V3a1,1,0,0,0-1-1H8A1,1,0,0,0,7,3V6a7,7,0,0,0,2.8,5.6l.53.4-.53.4A7,7,0,0,0,7,18v3a1,1,0,0,0,1,1h8a1,1,0,0,0,1-1V18a7,7,0,0,0-2.8-5.6l-.53-.4.53-.4A7.05,7.05,0,0,0,17,6Z" style="fill: #FFFFFF;"/>
<path id="secondary" d="M18,22H6a1,1,0,0,1,0-2H18a1,1,0,0,1,0,2ZM18,4H6A1,1,0,0,1,6,2H18a1,1,0,0,1,0,2Z" style="fill: #2ca9bc;"/>
</g>
</svg>